<svg width="53" height="70" viewBox="0 0 53 70" fill="none" xmlns="http://www.w3.org/2000/svg">
<path d="M1.41735 4.68857L5.86362 1.13007C7.74628 -0.376689 10.7906 -0.376689 12.6532 1.13007L51.5881 32.275C53.4708 33.7818 53.4708 36.2182 51.5881 37.709L12.6532 68.8699C10.7705 70.3767 7.72625 70.3767 5.86362 68.8699L1.41735 65.3114C-0.485337 63.7886 -0.44528 61.3041 1.49746 59.8134L25.6315 41.4117C25.6315 41.4117 30.3503 36.3139 32.4012 36.3139V34.6725C32.4012 32.275 27.6864 32.4353 30.3502 32.4353L25.6315 28.5883L1.49746 10.1866C-0.465308 8.6959 -0.505365 6.21136 1.41735 4.68857Z" fill="#FFA801"/>
</svg>
