<svg width="53" height="70" viewBox="0 0 53 70" fill="none" xmlns="http://www.w3.org/2000/svg">
<path d="M51.5827 4.68857L47.1364 1.13007C45.2537 -0.376689 42.2095 -0.376689 40.3468 1.13007L1.41199 32.275C-0.470665 33.7818 -0.470665 36.2182 1.41199 37.709L40.3468 68.8699C42.2295 70.3767 45.2738 70.3767 47.1364 68.8699L51.5827 65.3114C53.4853 63.7886 53.4453 61.3041 51.5025 59.8134L27.3685 41.4117C27.3685 41.4117 22.6497 36.3139 20.5989 36.3139V34.6725C20.5989 32.275 25.3137 32.4353 22.6499 32.4353L27.3685 28.5883L51.5025 10.1866C53.4653 8.6959 53.5054 6.21136 51.5827 4.68857Z" fill="#FFA801"/>
</svg>
