<svg width="74" height="74" viewBox="0 0 74 74" fill="none" xmlns="http://www.w3.org/2000/svg">
<path d="M37.0083 18.0273C26.5088 18.0273 18.0398 26.4982 18.0398 37C18.0398 47.5018 26.5088 55.9727 37.0083 55.9727C47.5078 55.9727 55.9767 47.5018 55.9767 37C55.9767 26.4982 47.5078 18.0273 37.0083 18.0273ZM37.0083 49.3347C30.2232 49.3347 24.6763 43.8031 24.6763 37C24.6763 30.1969 30.2067 24.6653 37.0083 24.6653C43.8098 24.6653 49.3402 30.1969 49.3402 37C49.3402 43.8031 43.7933 49.3347 37.0083 49.3347ZM61.1769 17.2513C61.1769 19.7116 59.1959 21.6766 56.7526 21.6766C54.2928 21.6766 52.3283 19.6951 52.3283 17.2513C52.3283 14.8074 54.3093 12.826 56.7526 12.826C59.1959 12.826 61.1769 14.8074 61.1769 17.2513ZM73.74 21.7426C73.4593 15.8147 72.1056 10.5638 67.7639 6.23753C63.4386 1.9113 58.1888 0.557291 52.2622 0.260069C46.154 -0.0866897 27.846 -0.0866897 21.7378 0.260069C15.8277 0.540779 10.5779 1.89479 6.23614 6.22102C1.89437 10.5472 0.557167 15.7982 0.260011 21.7261C-0.0866704 27.8357 -0.0866704 46.1478 0.260011 52.2574C0.540658 58.1853 1.89437 63.4362 6.23614 67.7625C10.5779 72.0887 15.8112 73.4427 21.7378 73.7399C27.846 74.0867 46.154 74.0867 52.2622 73.7399C58.1888 73.4592 63.4386 72.1052 67.7639 67.7625C72.0891 63.4362 73.4428 58.1853 73.74 52.2574C74.0867 46.1478 74.0867 27.8522 73.74 21.7426ZM65.8489 58.8128C64.5612 62.0492 62.0684 64.5426 58.8162 65.847C53.9461 67.779 42.3901 67.3331 37.0083 67.3331C31.6264 67.3331 20.0539 67.7625 15.2003 65.847C11.9646 64.5591 9.47184 62.0657 8.16765 58.8128C6.23614 53.9416 6.68187 42.383 6.68187 37C6.68187 31.617 6.25265 20.0418 8.16765 15.1872C9.45533 11.9508 11.9481 9.45744 15.2003 8.15296C20.0704 6.22102 31.6264 6.66685 37.0083 6.66685C42.3901 6.66685 53.9626 6.23753 58.8162 8.15296C62.0519 9.44092 64.5447 11.9343 65.8489 15.1872C67.7804 20.0584 67.3346 31.617 67.3346 37C67.3346 42.383 67.7804 53.9582 65.8489 58.8128Z" fill="url(#paint0_linear)"/>
<defs>
<linearGradient id="paint0_linear" x1="64.51" y1="3.79292e-07" x2="-10.3906" y2="90.0012" gradientUnits="userSpaceOnUse">
<stop offset="0.0897897" stop-color="#EA4B4B"/>
<stop offset="1" stop-color="#103FE9" stop-opacity="0.38"/>
</linearGradient>
</defs>
</svg>
