<svg width="142" height="57" viewBox="0 0 142 57" fill="none" xmlns="http://www.w3.org/2000/svg">
<path d="M31.1543 16.2637H25.998L24.5723 20.082L26.2129 20.5996V21H21.5547V20.5996L23.2539 19.8965L28.3516 6.5957H29.25L34.4746 19.8965L36.0762 20.5996V21H31.0762V20.5996L32.6582 20.082L31.1543 16.2637ZM28.498 9.58398L26.3984 15.2188H30.7539L28.5762 9.58398H28.498ZM47.2773 21H36.877V20.5996L38.6738 19.8965V7.69922L36.877 6.99609V6.5957H42.375V6.99609L40.6758 7.69922V19.8574H45.6367L46.877 16.9766H47.2773V21ZM56.0566 20.3359C56.7142 20.3359 57.2871 20.2611 57.7754 20.1113C58.2637 19.9616 58.6966 19.7142 59.0742 19.3691C59.4518 19.0241 59.735 18.5456 59.9238 17.9336C60.1191 17.3216 60.2168 16.5762 60.2168 15.6973V7.79688L58.4199 6.99609V6.5957H63.1562V6.99609L61.5156 7.79688V15.5605C61.5156 17.5462 61.0664 19.0176 60.168 19.9746C59.2695 20.9251 57.9121 21.4004 56.0957 21.4004C55.4577 21.4004 54.8815 21.3483 54.3672 21.2441C53.8594 21.1465 53.3711 20.9674 52.9023 20.707C52.4336 20.4401 52.043 20.0983 51.7305 19.6816C51.418 19.2585 51.1673 18.7116 50.9785 18.041C50.7962 17.3704 50.7051 16.5892 50.7051 15.6973V7.69922L48.8984 6.99609V6.5957H54.2988V6.99609L52.5996 7.69922V15.4434C52.5996 18.7051 53.752 20.3359 56.0566 20.3359ZM77.0039 6.5957H80.9102V6.99609L79.2109 7.69922V19.8965L81.0078 20.5996V21H76.1055V20.5996L77.668 19.8965V8.69531H77.5508L72.9512 21H71.9648L67.5703 8.65625H67.4727V19.7988L69.0645 20.5996V21H64.4648V20.5996L66.1641 19.7988V7.69922L64.3672 6.99609V6.5957H69.0254L69.0645 7.52344L72.6484 17.9238H72.7266L77.0039 6.5957ZM86.7109 7.69922V19.8965L88.5078 20.5996V21H83.1074V20.5996L84.8066 19.8965V7.69922L83.0098 6.99609V6.5957H88.4102V6.99609L86.7109 7.69922ZM102.697 7.79688V21H101.779L94.6797 10.5215L93.459 8.32422H93.3418L93.4004 10.7363V19.7988L95.002 20.5996V21H90.4023V20.5996L92.1016 19.7988V7.69922L90.3047 6.99609V6.5957H94.6016L94.7969 7.5625L99.8262 14.8965L101.379 17.4648H101.506L101.398 15.1211V7.79688L99.7969 6.99609V6.5957H104.406V6.99609L102.697 7.79688ZM109.914 7.69922V19.8965L111.711 20.5996V21H106.311V20.5996L108.01 19.8965V7.69922L106.213 6.99609V6.5957H111.613V6.99609L109.914 7.69922ZM120.549 21.4004C119.292 21.4004 118.169 21.0977 117.18 20.4922C116.197 19.8802 115.422 18.998 114.855 17.8457C114.289 16.6934 114.006 15.3587 114.006 13.8418C114.006 12.709 114.182 11.6608 114.533 10.6973C114.891 9.72721 115.376 8.91341 115.988 8.25586C116.607 7.59831 117.329 7.08398 118.156 6.71289C118.983 6.3418 119.865 6.15625 120.803 6.15625C121.734 6.15625 122.596 6.3418 123.391 6.71289C124.191 7.07747 124.878 7.58854 125.451 8.24609C126.024 8.90365 126.473 9.71419 126.799 10.6777C127.124 11.6348 127.287 12.6829 127.287 13.8223C127.287 14.9551 127.108 16 126.75 16.957C126.398 17.9141 125.92 18.7148 125.314 19.3594C124.709 20.0039 123.993 20.5052 123.166 20.8633C122.346 21.2214 121.473 21.4004 120.549 21.4004ZM120.666 7.25977C119.755 7.25977 118.951 7.54297 118.254 8.10938C117.564 8.66927 117.033 9.44727 116.662 10.4434C116.291 11.4329 116.105 12.5658 116.105 13.8418C116.105 15.7819 116.522 17.3509 117.355 18.5488C118.189 19.7402 119.292 20.3359 120.666 20.3359C122.02 20.3359 123.111 19.7337 123.938 18.5293C124.771 17.3249 125.188 15.7559 125.188 13.8223C125.188 11.8822 124.771 10.3034 123.938 9.08594C123.104 7.86849 122.014 7.25977 120.666 7.25977ZM130.949 19.7207C131.971 19.9746 132.824 20.1016 133.508 20.1016C133.859 20.1016 134.204 20.0658 134.543 19.9941C134.888 19.916 135.194 19.7858 135.461 19.6035C135.734 19.4212 135.952 19.1803 136.115 18.8809C136.285 18.5749 136.369 18.194 136.369 17.7383C136.369 17.4388 136.327 17.1589 136.242 16.8984C136.158 16.6315 136.001 16.3678 135.773 16.1074C135.552 15.847 135.249 15.5833 134.865 15.3164C134.481 15.043 133.99 14.7435 133.391 14.418C132.74 14.0664 132.176 13.7344 131.701 13.4219C131.232 13.1029 130.842 12.7741 130.529 12.4355C130.223 12.097 129.995 11.7324 129.846 11.3418C129.702 10.9512 129.631 10.5052 129.631 10.0039C129.631 7.54948 131.164 6.32227 134.23 6.32227C135.318 6.32227 136.464 6.47526 137.668 6.78125V10.1602H137.268L136.213 7.67969C135.523 7.53646 134.901 7.46484 134.348 7.46484C133.417 7.46484 132.691 7.64388 132.17 8.00195C131.649 8.35352 131.389 8.90039 131.389 9.64258C131.389 9.90299 131.424 10.1504 131.496 10.3848C131.568 10.6191 131.714 10.8633 131.936 11.1172C132.157 11.3711 132.469 11.6413 132.873 11.9277C133.277 12.2142 133.807 12.5397 134.465 12.9043C135.116 13.2559 135.682 13.5814 136.164 13.8809C136.652 14.1803 137.056 14.4896 137.375 14.8086C137.694 15.1211 137.932 15.4629 138.088 15.834C138.251 16.2051 138.332 16.6348 138.332 17.123C138.332 17.9043 138.202 18.5586 137.941 19.0859C137.681 19.6068 137.329 20.0299 136.887 20.3555C136.451 20.6745 135.939 20.9023 135.354 21.0391C134.768 21.1758 134.152 21.2441 133.508 21.2441C133.13 21.2441 132.779 21.2311 132.453 21.2051C132.134 21.1855 131.818 21.1497 131.506 21.0977C131.193 21.0521 130.874 20.9902 130.549 20.9121C130.223 20.8275 129.868 20.7298 129.484 20.6191V17.1035H129.992L130.949 19.7207Z" fill="#59636B"/>
<path d="M37.0801 38.8965V33.2031H29.8047V38.8965L31.6016 39.5996V40H26.2012V39.5996L27.9004 38.8965V26.6992L26.1035 25.9961V25.5957H31.5039V25.9961L29.8047 26.6992V32.1582H37.0801V26.6992L35.2832 25.9961V25.5957H40.4785V25.957L38.9844 26.6992V38.8965L40.7812 39.5996V40H35.3809V39.5996L37.0801 38.8965ZM42.998 40V39.5996L44.7949 38.8965V26.6992L42.998 25.9961V25.5957H50.9375L52.793 25.3418L53.0957 25.5957V29.5215H52.6953L51.4551 26.6406H46.6992V32.1387L50.752 31.9434L51.1328 32.0801L50.9375 33.3789L46.6992 33.2227V38.9648H51.6504L52.8906 36.084H53.291V40H42.998ZM64.873 40L61.7969 33.9648C61.6081 33.9909 61.4128 34.0104 61.2109 34.0234C61.0156 34.0365 60.8138 34.043 60.6055 34.043C60.3646 34.043 60.1172 34.0332 59.8633 34.0137C59.6159 33.9941 59.3587 33.9681 59.0918 33.9355V38.8965L61.2988 39.5996V40H55.498V39.5996L57.2949 38.8965V26.6992L55.498 25.9961V25.5957H60.9961C61.8424 25.5957 62.5944 25.6934 63.252 25.8887C63.9095 26.0775 64.4629 26.3477 64.9121 26.6992C65.3678 27.0508 65.7129 27.474 65.9473 27.9688C66.1816 28.457 66.2988 29.0007 66.2988 29.5996C66.2988 30.4785 66.071 31.2598 65.6152 31.9434C65.166 32.6204 64.4987 33.138 63.6133 33.4961L66.4551 39.043L67.8906 39.5996V40H64.873ZM61.2793 26.6211H59.0918V32.9004C59.3587 32.9329 59.6094 32.959 59.8438 32.9785C60.0846 32.9915 60.319 32.998 60.5469 32.998C63.0599 32.998 64.3164 31.9173 64.3164 29.7559C64.3164 28.7077 64.056 27.9232 63.5352 27.4023C63.0143 26.8815 62.2624 26.6211 61.2793 26.6211ZM78.9746 40L75.8984 33.9648C75.7096 33.9909 75.5143 34.0104 75.3125 34.0234C75.1172 34.0365 74.9154 34.043 74.707 34.043C74.4661 34.043 74.2188 34.0332 73.9648 34.0137C73.7174 33.9941 73.4603 33.9681 73.1934 33.9355V38.8965L75.4004 39.5996V40H69.5996V39.5996L71.3965 38.8965V26.6992L69.5996 25.9961V25.5957H75.0977C75.944 25.5957 76.696 25.6934 77.3535 25.8887C78.0111 26.0775 78.5645 26.3477 79.0137 26.6992C79.4694 27.0508 79.8145 27.474 80.0488 27.9688C80.2832 28.457 80.4004 29.0007 80.4004 29.5996C80.4004 30.4785 80.1725 31.2598 79.7168 31.9434C79.2676 32.6204 78.6003 33.138 77.7148 33.4961L80.5566 39.043L81.9922 39.5996V40H78.9746ZM75.3809 26.6211H73.1934V32.9004C73.4603 32.9329 73.7109 32.959 73.9453 32.9785C74.1862 32.9915 74.4206 32.998 74.6484 32.998C77.1615 32.998 78.418 31.9173 78.418 29.7559C78.418 28.7077 78.1576 27.9232 77.6367 27.4023C77.1159 26.8815 76.3639 26.6211 75.3809 26.6211ZM92.1582 35.2637H87.002L85.5762 39.082L87.2168 39.5996V40H82.5586V39.5996L84.2578 38.8965L89.3555 25.5957H90.2539L95.4785 38.8965L97.0801 39.5996V40H92.0801V39.5996L93.6621 39.082L92.1582 35.2637ZM89.502 28.584L87.4023 34.2188H91.7578L89.5801 28.584H89.502ZM101.221 26.6992V37.7637C101.221 39.0202 100.876 40.0456 100.186 40.8398C99.4954 41.6341 98.4342 42.2331 97.002 42.6367L96.9336 42.002C97.8581 41.4746 98.4863 40.8984 98.8184 40.2734C99.1504 39.6549 99.3164 38.763 99.3164 37.5977V26.6992L97.5195 25.9961V25.5957H102.92V25.9961L101.221 26.6992ZM104.521 40V39.5996L106.318 38.8965V26.6992L104.521 25.9961V25.5957H112.461L114.316 25.3418L114.619 25.5957V29.5215H114.219L112.979 26.6406H108.223V32.1387L112.275 31.9434L112.656 32.0801L112.461 33.3789L108.223 33.2227V38.9648H113.174L114.414 36.084H114.814V40H104.521ZM118.379 38.7207C119.401 38.9746 120.254 39.1016 120.938 39.1016C121.289 39.1016 121.634 39.0658 121.973 38.9941C122.318 38.916 122.624 38.7858 122.891 38.6035C123.164 38.4212 123.382 38.1803 123.545 37.8809C123.714 37.5749 123.799 37.194 123.799 36.7383C123.799 36.4388 123.757 36.1589 123.672 35.8984C123.587 35.6315 123.431 35.3678 123.203 35.1074C122.982 34.847 122.679 34.5833 122.295 34.3164C121.911 34.043 121.419 33.7435 120.82 33.418C120.169 33.0664 119.606 32.7344 119.131 32.4219C118.662 32.1029 118.271 31.7741 117.959 31.4355C117.653 31.097 117.425 30.7324 117.275 30.3418C117.132 29.9512 117.061 29.5052 117.061 29.0039C117.061 26.5495 118.594 25.3223 121.66 25.3223C122.747 25.3223 123.893 25.4753 125.098 25.7812V29.1602H124.697L123.643 26.6797C122.952 26.5365 122.331 26.4648 121.777 26.4648C120.846 26.4648 120.12 26.6439 119.6 27.002C119.079 27.3535 118.818 27.9004 118.818 28.6426C118.818 28.903 118.854 29.1504 118.926 29.3848C118.997 29.6191 119.144 29.8633 119.365 30.1172C119.587 30.3711 119.899 30.6413 120.303 30.9277C120.706 31.2142 121.237 31.5397 121.895 31.9043C122.546 32.2559 123.112 32.5814 123.594 32.8809C124.082 33.1803 124.486 33.4896 124.805 33.8086C125.124 34.1211 125.361 34.4629 125.518 34.834C125.68 35.2051 125.762 35.6348 125.762 36.123C125.762 36.9043 125.632 37.5586 125.371 38.0859C125.111 38.6068 124.759 39.0299 124.316 39.3555C123.88 39.6745 123.369 39.9023 122.783 40.0391C122.197 40.1758 121.582 40.2441 120.938 40.2441C120.56 40.2441 120.208 40.2311 119.883 40.2051C119.564 40.1855 119.248 40.1497 118.936 40.0977C118.623 40.0521 118.304 39.9902 117.979 39.9121C117.653 39.8275 117.298 39.7298 116.914 39.6191V36.1035H117.422L118.379 38.7207Z" fill="#828382"/>
<path d="M140 3.01471L2 2" stroke="#009ED6" stroke-width="2" stroke-linecap="round"/>
<path d="M140 46.0147L2 45" stroke="#009ED6" stroke-width="2" stroke-linecap="round"/>
<path d="M8.30807 23.1576C8.30807 23.8585 8.49091 24.5289 8.8566 25.1689C9.22228 25.7987 9.84699 26.5605 10.7307 27.4544C12.0411 26.6926 12.9502 25.9917 13.4581 25.3517C13.9762 24.7016 14.2352 23.955 14.2352 23.1119C14.2352 22.3297 13.9711 21.6949 13.4429 21.2073C12.9248 20.7096 12.229 20.4607 11.3554 20.4607C10.4514 20.4607 9.71494 20.7045 9.1461 21.1921C8.58741 21.6796 8.30807 22.3348 8.30807 23.1576ZM10.6698 39.0344C13.1178 39.0344 15.1494 38.2523 16.7645 36.688L10.106 30.2275C8.97849 30.9183 8.18109 31.4922 7.71383 31.9493C7.24657 32.3962 6.9012 32.8787 6.67772 33.3968C6.45425 33.9149 6.34251 34.504 6.34251 35.1643C6.34251 36.3528 6.73359 37.2974 7.51575 37.9983C8.30807 38.6891 9.35941 39.0344 10.6698 39.0344ZM3.72177 35.2252C3.72177 33.9047 4.07222 32.7365 4.77311 31.7207C5.48417 30.7049 6.75391 29.679 8.58233 28.6429C7.71891 27.6779 7.12975 26.9465 6.81485 26.4488C6.51012 25.951 6.26633 25.433 6.08348 24.8946C5.90064 24.3562 5.80922 23.7976 5.80922 23.2186C5.80922 21.6949 6.30696 20.5064 7.30243 19.6531C8.29791 18.7999 9.68447 18.3732 11.4621 18.3732C13.1077 18.3732 14.4028 18.7999 15.3475 19.6531C16.2922 20.4962 16.7645 21.6746 16.7645 23.1881C16.7645 24.275 16.4192 25.2806 15.7284 26.205C15.0377 27.1192 13.8949 28.0487 12.3001 28.9933L18.5015 34.951C19.0704 34.3212 19.5224 33.5847 19.8576 32.7416C20.203 31.8883 20.4925 30.9589 20.7261 29.9533H23.2859C22.5952 32.8584 21.554 35.0627 20.1624 36.5661L24.7182 41H21.2289L18.4101 38.2878C17.2115 39.3646 15.9925 40.1366 14.7533 40.6038C13.514 41.0711 12.1325 41.3047 10.6088 41.3047C8.42488 41.3047 6.72851 40.7664 5.51972 39.6896C4.32108 38.6129 3.72177 37.1248 3.72177 35.2252Z" fill="#009ED6"/>
</svg>
