<svg width="61" height="61" viewBox="0 0 61 61" fill="none" xmlns="http://www.w3.org/2000/svg">
<path d="M14.0239 0L0 29.6471L11.8015 36.2353L25.2889 6.29412L14.0239 0Z" fill="url(#paint0_radial)"/>
<path d="M37.455 11.4117L22.8367 44.8235L34.8112 50.7059L49.3517 17.6752L37.455 11.4117Z" fill="url(#paint1_radial)"/>
<path d="M34.7914 50.7059L25.3655 6.29412L14.1005 0L22.8366 44.8235L34.7914 50.7059Z" fill="#828382"/>
<path d="M49.4283 55.2353L37.5502 11.4706L49.4283 17.6471L60.9999 61L49.4283 55.2353Z" fill="#828382"/>
<path d="M25.3655 6.29412L14.1005 0L18.3153 22.0588L25.3655 6.29412Z" fill="#7B6954"/>
<path d="M33.2589 21L22.147 13.647L17.1659 24.4706L28.5842 31.647L33.2589 21Z" fill="#424241"/>
<path d="M19.0817 25.7059L18.3154 21.8823C17.9578 22.7451 17.1506 24.4706 17.0892 24.4706C17.0279 24.4706 18.4175 25.2941 19.0817 25.7059Z" fill="#878888"/>
<path d="M30.0402 28.4706L27.7412 17.353L33.2588 21.0588L30.0402 28.4706Z" fill="#888888"/>
<path d="M22.76 44.8235L30.0402 28.4706L34.7914 50.7059L22.76 44.8235Z" fill="#596871"/>
<path d="M49.4284 17.647L37.4736 11.4117L43.0679 31.9412L49.4284 17.647Z" fill="#59636B"/>
<defs>
<radialGradient id="paint0_radial" cx="0" cy="0" r="1" gradientUnits="userSpaceOnUse" gradientTransform="translate(12.5678 3.23529) rotate(90) scale(19.2941 15.0284)">
<stop stop-color="#F7A43B"/>
<stop offset="0.602486" stop-color="#EE732D"/>
</radialGradient>
<radialGradient id="paint1_radial" cx="0" cy="0" r="1" gradientUnits="userSpaceOnUse" gradientTransform="translate(40.8763 16.6707) rotate(115.025) scale(29.4101 10.7421)">
<stop offset="0.0416667" stop-color="#009ED6"/>
<stop offset="0.483665" stop-color="#00759A"/>
<stop offset="1" stop-color="#266385"/>
</radialGradient>
</defs>
</svg>
