<svg width="22" height="25" viewBox="0 0 22 25" fill="none" xmlns="http://www.w3.org/2000/svg">
<path d="M21.7008 21.2495L17.4165 16.5766C17.2231 16.3656 16.961 16.2485 16.686 16.2485H15.9855C17.1716 14.5939 17.8763 12.5129 17.8763 10.249C17.8763 4.86364 13.8756 0.5 8.93815 0.5C4.00068 0.5 0 4.86364 0 10.249C0 15.6345 4.00068 19.9981 8.93815 19.9981C11.0137 19.9981 12.9216 19.2294 14.4386 17.9358V18.6998C14.4386 18.9998 14.546 19.2857 14.7394 19.4966L19.0237 24.1696C19.4276 24.6101 20.0808 24.6101 20.4804 24.1696L21.6965 22.8431C22.1004 22.4025 22.1004 21.6901 21.7008 21.2495ZM8.93815 16.2485C5.90004 16.2485 3.43775 13.5675 3.43775 10.249C3.43775 6.93531 5.89574 4.24963 8.93815 4.24963C11.9763 4.24963 14.4386 6.93062 14.4386 10.249C14.4386 13.5628 11.9806 16.2485 8.93815 16.2485Z" fill="#6C6C6C"/>
</svg>
