<svg width="43" height="43" viewBox="0 0 43 43" fill="none" xmlns="http://www.w3.org/2000/svg">
<path d="M36.6589 6.24844C32.6357 2.21719 27.2862 0 21.5834 0C9.84167 0 0.284918 9.55675 0.284918 21.3065C0.284918 25.0609 1.2672 28.7307 3.13232 31.9557L0.108887 43L11.4045 40.0357C14.5206 41.7315 18.0224 42.6305 21.5834 42.6305H21.5914C33.3331 42.6305 42.8979 33.0724 42.8979 21.324C42.8979 15.6292 40.6807 10.2797 36.6575 6.24844H36.6589ZM21.5928 39.0359C18.4094 39.0359 15.2933 38.18 12.5722 36.5675L11.9258 36.1805L5.22454 37.9354L7.01307 31.4007L6.59248 30.7289C4.81201 27.9151 3.87945 24.6565 3.87945 21.3065C3.87945 11.5388 11.8237 3.59453 21.6008 3.59453C26.3295 3.59453 30.78 5.44219 34.1232 8.78409C37.4665 12.1354 39.3047 16.5778 39.3047 21.3146C39.2967 31.0903 31.3511 39.0359 21.5928 39.0359ZM31.3014 25.7664C30.7719 25.4977 28.1516 24.213 27.6652 24.0357C27.1787 23.8583 26.8253 23.7669 26.4639 24.3044C26.1118 24.8338 25.0865 26.0352 24.7761 26.3953C24.4657 26.7473 24.1553 26.7984 23.6259 26.5297C23.0964 26.2609 21.3751 25.6979 19.342 23.8838C17.7631 22.4729 16.6881 20.726 16.3777 20.1966C16.0673 19.6671 16.3441 19.3728 16.6128 19.1135C16.856 18.8783 17.1423 18.4913 17.411 18.1809C17.6798 17.8705 17.7631 17.6515 17.9405 17.2914C18.1165 16.9393 18.0332 16.6276 17.8988 16.3588C17.7644 16.0901 16.6975 13.4697 16.2608 12.4028C15.8321 11.3614 15.3873 11.5038 15.0595 11.4877C14.749 11.4716 14.3956 11.4716 14.0436 11.4716C13.6915 11.4716 13.111 11.606 12.6246 12.1354C12.1368 12.6648 10.7608 13.9575 10.7608 16.5778C10.7608 19.1982 12.6676 21.7257 12.9363 22.0872C13.2051 22.4393 16.6908 27.8237 22.0322 30.1242C23.3007 30.6697 24.291 30.9976 25.0637 31.2489C26.3402 31.652 27.4999 31.5929 28.415 31.4585C29.4389 31.3067 31.5647 30.1739 32.0095 28.9309C32.4543 27.688 32.4543 26.621 32.3199 26.4033C32.1936 26.1682 31.8415 26.0338 31.304 25.7651L31.3014 25.7664Z" fill="#05C46B"/>
</svg>
